<svg fill="none" height="35" viewBox="0 0 165 35" width="165" xmlns="http://www.w3.org/2000/svg" xmlns:xlink="http://www.w3.org/1999/xlink"><clipPath id="a"><path d="m0 .84h165v34h-165z"/></clipPath><g clip-path="url(#a)"><path d="m0 1.29h4.664v21.86h-4.664zm27.74 0v21.86h-4.02l-10.692-13.88v13.88h-4.666v-21.86h4.05l10.673 13.95v-13.95zm3.7 21.86v-21.86h9.31c1.788-.063 3.533.56 4.88 1.743.598.488 1.08 1.103 1.413 1.8.334.698.51 1.46.517 2.235.008.568-.074 1.133-.24 1.675-.134.466-.342.907-.617 1.306-.23.31-.48.606-.748.886-.186.197-.392.374-.615.528l-.258.15.383.176c.29.17.567.36.83.57.4.28.767.61 1.09.98.355.435.636.927.83 1.456.263.625.396 1.297.392 1.976 0 .86-.186 1.708-.545 2.487-.36.778-.882 1.47-1.533 2.024-1.463 1.286-3.358 1.96-5.297 1.884l-9.793-.017zm4.664-17.957v4.687h4.33c.33.02.66-.025.97-.134.312-.11.598-.28.844-.5.427-.466.665-1.076.665-1.71 0-.632-.238-1.243-.665-1.707-.246-.222-.532-.393-.843-.502-.31-.11-.64-.155-.97-.135h-4.33zm4.988 14.048c.79.016 1.55-.285 2.12-.836.266-.26.477-.57.622-.914.144-.344.218-.713.218-1.087 0-.373-.074-.742-.218-1.086-.145-.344-.356-.655-.622-.915-.28-.274-.613-.49-.977-.632-.364-.144-.752-.214-1.143-.205h-4.988v5.626l4.988.05zm12.204-15.061c2.266-2.147 5.26-3.342 8.37-3.342 3.112 0 6.106 1.195 8.373 3.342 1.077 1.04 1.934 2.29 2.52 3.674.586 1.383.888 2.872.888 4.376s-.302 2.992-.888 4.376c-.586 1.383-1.443 2.633-2.522 3.674-2.264 2.15-5.26 3.347-8.37 3.347-3.113 0-6.108-1.197-8.372-3.347-1.08-1.04-1.94-2.29-2.527-3.673-.59-1.383-.892-2.873-.892-4.377 0-1.505.303-2.994.89-4.378.588-1.383 1.448-2.633 2.528-3.672zm3.425 13.153c.65.655 1.42 1.175 2.267 1.53.848.355 1.758.537 2.676.537s1.828-.182 2.676-.537c.847-.355 1.617-.875 2.265-1.53 1.303-1.375 2.03-3.203 2.03-5.103s-.727-3.728-2.03-5.103c-.645-.66-1.414-1.185-2.263-1.543-.848-.358-1.76-.543-2.68-.543s-1.83.186-2.678.544c-.85.358-1.618.882-2.263 1.543-1.302 1.375-2.028 3.202-2.028 5.103 0 1.9.726 3.727 2.03 5.103z" fill="#0062ff"/><path d="m77.48 23.15h-5.29l7.6-11.4-6.975-10.46h5.28l4.646 7.034 4.649-7.034h5.27l-6.975 10.46 7.598 11.403h-5.27l-5.27-7.952-5.263 7.953z" fill="#0062ff"/><path d="m107.223 13.95-2.627-7.183-2.65 7.183-1.548 4.052-1.862 5.15h-4.988l8.538-21.86h4.946l8.538 21.86h-4.988l-1.862-5.152m8.105 5.15v-21.86h4.664v17.66h10.066v4.187l-14.73.016zm16.427 0v-21.86h4.655v17.66h10.068v4.187l-14.723.016zm21.538-12.482 5.114-9.377h4.988l-7.748 14.058v7.803h-4.705v-7.802l-7.749-14.06h4.99zm-150.525 18.737v.77h-1.595v4.59h-.833v-4.59h-1.597v-.77zm5.112 5.359h-.83v-2.336h-2.629v2.336h-.832v-5.36h.83v2.262h2.628v-2.26h.83v5.358zm5.287-.762v.762h-3.84v-5.36h3.766v.772h-2.927v1.415h2.32v.762h-2.32v1.675l3-.025zm5.811-.342c.134-.136.24-.297.31-.474.073-.177.108-.366.106-.557v-3.216h.832v3.215c.006.293-.05.585-.163.856-.114.27-.282.515-.494.717-.427.414-.996.646-1.588.646-.593 0-1.162-.233-1.588-.647-.212-.203-.38-.447-.492-.718-.113-.27-.17-.562-.165-.856v-3.216h.83v3.215c0 .19.035.38.106.556.07.177.176.337.31.473.128.134.28.242.45.315.17.074.354.112.54.112.184 0 .368-.038.538-.112.17-.073.323-.18.45-.316h.017zm2.645 1.104v-5.36h.83v4.598h2.586v.762zm7.173-5.359v.77h-1.596v4.59h-.83v-4.59h-1.597v-.77zm.815 0h.83v5.36h-.83zm7.108 0h.723v5.36h-.832v-3.905l-1.937 2.453-1.936-2.453v3.902h-.832v-5.36h.724l2.053 2.605 2.036-2.604zm3.74 0h.832l2.203 5.36h-.83l-.574-1.416h-2.353l-.573 1.414h-.832l2.128-5.36zm-.457 3.182h1.753l-.83-2.227-.924 2.227zm7.225-3.182v.77h-1.597v4.59h-.83v-4.59h-1.597v-.77h4.023zm4.656 4.597v.762h-3.842v-5.36h3.766v.772h-2.934v1.415h2.31v.762h-2.32v1.675l3.02-.025zm6.491 0v.762h-3.864v-5.36h3.766v.772h-2.935v1.415h2.32v.762h-2.32v1.675l3.034-.025zm5.853-4.597h.723v5.36h-.83v-3.905l-1.946 2.453-1.936-2.453v3.902h-.832v-5.36h.724l2.045 2.605 2.054-2.604zm3.749 0h.832l2.203 5.36h-.873l-.574-1.416h-2.351l-.573 1.414h-.873l2.21-5.36zm-.457 3.182h1.754l-.83-2.227zm4.314-3.182h.832v5.36h-.83v-5.36zm2.278 5.359v-5.36h.832v4.598h2.577v.762h-3.41zm7.832-5.359c.354-.004.705.065 1.032.202.327.136.624.338.87.594.25.247.45.54.586.864.136.325.205.673.205 1.025 0 .35-.07.7-.205 1.023-.136.324-.335.618-.585.864-.248.254-.544.455-.87.59-.33.135-.68.202-1.034.197h-1.863v-5.36h1.862zm-1.03.77v3.827h1.03c.245.005.49-.043.716-.14.226-.096.43-.24.597-.42.347-.366.54-.852.54-1.357 0-.506-.193-.992-.54-1.357-.17-.178-.373-.32-.6-.415-.225-.095-.47-.142-.714-.137h-1.03zm8.644 3.827v.762h-3.84v-5.36h3.766v.772h-2.927v1.415h2.32v.762h-2.32v1.675l3-.025zm1.031.762v-5.36h.83v4.598h2.578v.762zm4.273-5.359h.83v5.36h-.83zm1.688 0h.88l1.663 4.287 1.662-4.287h.873l-2.087 5.36h-.83l-2.162-5.36zm9.709 4.597v.762h-3.832v-5.36h3.758v.772h-2.926v1.415h2.32v.762h-2.32v1.675l3-.025zm1.031-4.597h2.245c.226-.008.45.03.66.113.21.082.402.206.563.365.158.15.284.33.37.533.083.202.125.42.12.64 0 .207-.037.414-.108.61-.06.168-.153.322-.274.452-.095.104-.198.202-.307.293-.083.065-.172.12-.266.17l-.108.04 1.213 2.144h-.914l-1.14-2.068h-1.214v2.068h-.83zm2.868 1.022c-.08-.083-.178-.15-.285-.192-.11-.043-.224-.063-.34-.06h-1.404v1.76h1.405c.174-.003.342-.055.485-.152.144-.097.255-.235.322-.395.066-.16.084-.337.052-.508-.034-.17-.115-.33-.236-.453zm4.124-1.022h.83l2.204 5.36h-.83l-.567-1.416h-2.386l-.574 1.414h-.83l2.152-5.36zm-.458 3.182h1.746l-.873-2.227zm4.315 2.177v-5.36h2.16c.41-.007.808.146 1.107.428.14.124.253.276.332.446.078.17.12.355.125.542 0 .206-.047.41-.134.595-.06.14-.152.266-.266.368l-.133.11c.024.02.053.038.083.05l.192.158c.094.073.176.16.24.26.083.113.147.237.192.37.06.148.09.307.09.468.002.21-.042.415-.126.606-.085.19-.208.36-.363.5-.163.155-.354.276-.564.355-.21.078-.433.114-.657.104zm.83-4.63v1.457h1.33c.097.005.193-.012.282-.048.088-.036.17-.09.235-.16.068-.068.122-.15.158-.238.036-.09.053-.185.05-.282.002-.096-.015-.192-.05-.28-.036-.09-.09-.172-.157-.24-.068-.068-.148-.122-.237-.157-.09-.036-.184-.053-.28-.05h-1.33zm1.448 3.9c.113.002.224-.02.328-.066.104-.045.198-.11.276-.193.078-.082.138-.18.177-.285.04-.107.057-.22.05-.334.003-.116-.018-.23-.06-.34-.044-.107-.108-.205-.188-.288s-.178-.148-.286-.19c-.108-.045-.223-.065-.34-.06h-1.445v1.757h1.488zm2.859-4.629h.832v5.36h-.832zm2.278 5.359v-5.36h.832v4.598h2.585v.762zm4.273-5.359h.832v5.36h-.832zm5.677 0v.77h-1.595v4.59h-.83v-4.59h-1.597v-.77zm2.886 2.579 1.446-2.562h.915l-1.945 3.4v1.908h-.832v-1.91l-1.937-3.448h.906l1.446 2.612zm8.204-2.579v.77h-1.595v4.59h-.83v-4.59h-1.597v-.77h4.023zm1.115.729c.542-.515 1.258-.802 2.003-.802s1.462.287 2.004.802c.266.248.478.55.62.886.144.336.216.7.21 1.065.005.366-.067.73-.21 1.067s-.354.64-.62.892c-.544.51-1.26.796-2.004.796-.743 0-1.46-.285-2.003-.796-.266-.25-.477-.555-.62-.892s-.215-.7-.21-1.067c-.006-.366.065-.73.21-1.065.142-.336.354-.638.62-.886zm.598 3.35c.325.33.753.538 1.213.587.46.05.92-.063 1.307-.32.386-.255.67-.638.808-1.083.138-.444.117-.923-.058-1.354-.174-.43-.492-.787-.9-1.008-.405-.22-.875-.293-1.33-.204-.452.09-.86.334-1.155.693-.294.36-.456.81-.457 1.275-.007.265.04.53.14.776.097.246.245.47.433.655v-.017zm5.845-3.35c.54-.515 1.258-.802 2.003-.802.746 0 1.463.287 2.005.802.266.248.478.55.62.886.144.336.216.7.21 1.065.005.366-.067.73-.21 1.067s-.354.64-.62.892c-.544.51-1.26.796-2.004.796-.743 0-1.46-.285-2.002-.796-.266-.25-.477-.555-.62-.892-.144-.337-.215-.7-.212-1.067-.004-.366.067-.73.21-1.065.144-.336.355-.638.622-.886zm.598 3.35c.324.33.753.538 1.212.587.46.05.922-.063 1.308-.32.385-.255.67-.638.808-1.083.136-.444.116-.923-.06-1.354-.174-.43-.49-.787-.898-1.008-.406-.22-.877-.293-1.33-.204-.454.09-.862.334-1.156.693-.295.36-.456.81-.457 1.275-.008.266.038.53.137.776.1.247.247.47.436.655zm5.337 1.28v-5.36h.832v4.598h2.577v.762h-3.41z" fill="#fff"/><path d="m110.973 7.236-17.508 10.164c-.058.032-.106.08-.138.14-.03.06-.044.126-.038.193.005.067.03.13.072.183.042.052.098.09.16.11l5.397 1.785 7.547-6.555-5.82 7.133v3.115c.002.07.024.137.064.193.042.057.098.1.163.123s.135.026.202.008c.066-.017.126-.055.17-.107l2.005-2.47 4.722 1.575c.07.02.142.028.214.02.072-.01.14-.033.204-.07.062-.037.117-.086.16-.146.042-.06.07-.127.087-.2l2.934-14.734c.015-.077.007-.156-.02-.23-.03-.072-.077-.136-.14-.184-.06-.047-.134-.077-.212-.085-.077-.008-.155.005-.225.04z" fill="#f33"/></g></svg>