<svg width="351" height="351" viewBox="0 0 351 351" fill="none" xmlns="http://www.w3.org/2000/svg">
<g clip-path="url(#clip0_145_13898)">
<path d="M175.5 347C270.217 347 347 270.217 347 175.5C347 80.7832 270.217 4 175.5 4C80.7832 4 4 80.7832 4 175.5C4 270.217 80.7832 347 175.5 347Z" fill="#04DA8D" stroke="#04DA8D" stroke-width="8"/>
<g clip-path="url(#clip1_145_13898)">
<path d="M145.196 285.12H158.132V287.533H153.046V301.101H150.249V287.533H145.185V285.12H145.196ZM157.579 289.53H159.97V291.763H160.016C160.094 291.447 160.241 291.142 160.455 290.849C160.67 290.556 160.929 290.274 161.234 290.037C161.538 289.789 161.876 289.597 162.249 289.439C162.621 289.293 163.004 289.214 163.388 289.214C163.681 289.214 163.895 289.225 164.008 289.236C164.121 289.248 164.233 289.27 164.358 289.282V291.74C164.177 291.706 163.997 291.684 163.805 291.661C163.613 291.639 163.433 291.627 163.252 291.627C162.824 291.627 162.418 291.718 162.034 291.887C161.651 292.056 161.324 292.315 161.042 292.642C160.76 292.981 160.534 293.387 160.365 293.883C160.196 294.379 160.117 294.943 160.117 295.586V301.09H157.568V289.53H157.579ZM176.075 301.101H173.572V299.488H173.526C173.211 300.075 172.748 300.537 172.128 300.887C171.508 301.236 170.876 301.417 170.233 301.417C168.711 301.417 167.606 301.044 166.929 300.289C166.252 299.533 165.914 298.394 165.914 296.872V289.53H168.463V296.623C168.463 297.639 168.654 298.36 169.049 298.778C169.433 299.195 169.985 299.409 170.684 299.409C171.226 299.409 171.666 299.33 172.026 299.161C172.387 298.992 172.681 298.778 172.895 298.496C173.12 298.225 173.278 297.887 173.38 297.503C173.481 297.12 173.526 296.702 173.526 296.251V289.541H176.075V301.101ZM180.417 297.39C180.496 298.135 180.778 298.654 181.263 298.958C181.759 299.251 182.346 299.409 183.034 299.409C183.271 299.409 183.541 299.387 183.846 299.353C184.15 299.319 184.443 299.24 184.703 299.138C184.974 299.037 185.188 298.879 185.368 298.676C185.537 298.473 185.616 298.214 185.605 297.887C185.594 297.56 185.47 297.289 185.244 297.086C185.019 296.872 184.737 296.714 184.387 296.578C184.037 296.454 183.643 296.342 183.192 296.251C182.74 296.161 182.289 296.06 181.827 295.958C181.353 295.857 180.891 295.721 180.451 295.575C180.011 295.428 179.617 295.225 179.267 294.966C178.917 294.718 178.635 294.39 178.432 293.996C178.218 293.601 178.117 293.116 178.117 292.53C178.117 291.898 178.274 291.379 178.579 290.951C178.883 290.522 179.278 290.184 179.741 289.924C180.214 289.665 180.733 289.485 181.308 289.372C181.883 289.27 182.436 289.214 182.955 289.214C183.553 289.214 184.128 289.282 184.669 289.406C185.21 289.53 185.707 289.733 186.146 290.026C186.586 290.308 186.947 290.68 187.24 291.131C187.534 291.582 187.714 292.135 187.793 292.778H185.131C185.007 292.169 184.737 291.751 184.297 291.548C183.857 291.334 183.35 291.233 182.786 291.233C182.605 291.233 182.391 291.244 182.143 291.278C181.895 291.312 181.669 291.368 181.444 291.447C181.229 291.526 181.049 291.65 180.891 291.808C180.744 291.966 180.665 292.169 180.665 292.428C180.665 292.744 180.778 292.992 180.992 293.184C181.207 293.375 181.489 293.533 181.838 293.669C182.188 293.793 182.583 293.906 183.034 293.996C183.485 294.086 183.947 294.187 184.421 294.289C184.883 294.39 185.334 294.526 185.786 294.672C186.237 294.819 186.631 295.022 186.981 295.281C187.331 295.541 187.613 295.857 187.827 296.24C188.041 296.623 188.154 297.108 188.154 297.672C188.154 298.36 187.996 298.935 187.68 299.42C187.364 299.894 186.958 300.289 186.462 300.582C185.966 300.875 185.402 301.101 184.793 301.236C184.184 301.371 183.575 301.439 182.977 301.439C182.244 301.439 181.568 301.36 180.947 301.191C180.327 301.022 179.786 300.774 179.335 300.447C178.883 300.108 178.523 299.691 178.263 299.195C178.004 298.699 177.868 298.101 177.846 297.413H180.417V297.39ZM188.831 289.53H190.759V286.056H193.308V289.53H195.609V291.436H193.308V297.616C193.308 297.887 193.319 298.112 193.342 298.315C193.364 298.507 193.421 298.676 193.5 298.811C193.579 298.947 193.703 299.048 193.872 299.116C194.041 299.184 194.255 299.217 194.548 299.217C194.729 299.217 194.909 299.217 195.09 299.206C195.27 299.195 195.451 299.172 195.631 299.127V301.101C195.349 301.135 195.067 301.157 194.808 301.191C194.537 301.225 194.267 301.236 193.985 301.236C193.308 301.236 192.767 301.168 192.361 301.044C191.955 300.92 191.627 300.729 191.402 300.481C191.165 300.232 191.018 299.928 190.928 299.556C190.849 299.184 190.793 298.755 190.782 298.281V291.458H188.853V289.53H188.831ZM197.413 289.53H199.827V291.097H199.872C200.233 290.421 200.729 289.947 201.372 289.654C202.014 289.361 202.702 289.214 203.458 289.214C204.372 289.214 205.161 289.372 205.838 289.699C206.514 290.015 207.078 290.454 207.529 291.018C207.98 291.582 208.308 292.236 208.533 292.981C208.759 293.725 208.871 294.526 208.871 295.372C208.871 296.15 208.77 296.905 208.567 297.627C208.364 298.36 208.059 299.003 207.653 299.567C207.247 300.131 206.729 300.571 206.097 300.909C205.465 301.247 204.732 301.417 203.875 301.417C203.503 301.417 203.131 301.383 202.759 301.315C202.387 301.247 202.026 301.135 201.687 300.988C201.349 300.841 201.022 300.65 200.74 300.413C200.447 300.176 200.21 299.905 200.007 299.601H199.962V305.375H197.413V289.53ZM206.323 295.327C206.323 294.808 206.255 294.3 206.12 293.804C205.984 293.308 205.781 292.879 205.511 292.496C205.24 292.112 204.902 291.808 204.507 291.582C204.101 291.357 203.638 291.233 203.12 291.233C202.048 291.233 201.236 291.605 200.695 292.349C200.154 293.094 199.883 294.086 199.883 295.327C199.883 295.913 199.951 296.454 200.097 296.951C200.244 297.447 200.447 297.875 200.74 298.236C201.022 298.597 201.36 298.879 201.755 299.082C202.15 299.296 202.612 299.398 203.131 299.398C203.717 299.398 204.202 299.274 204.608 299.037C205.014 298.8 205.341 298.484 205.601 298.112C205.86 297.729 206.052 297.3 206.165 296.815C206.266 296.33 206.323 295.834 206.323 295.327ZM210.822 285.12H213.371V287.533H210.822V285.12ZM210.822 289.53H213.371V301.101H210.822V289.53ZM215.649 285.12H218.198V301.101H215.649V285.12ZM226.014 301.417C225.089 301.417 224.266 301.259 223.544 300.954C222.822 300.65 222.213 300.221 221.706 299.691C221.209 299.15 220.826 298.507 220.567 297.763C220.307 297.018 220.172 296.195 220.172 295.304C220.172 294.424 220.307 293.612 220.567 292.868C220.826 292.124 221.209 291.481 221.706 290.939C222.202 290.398 222.822 289.981 223.544 289.676C224.266 289.372 225.089 289.214 226.014 289.214C226.939 289.214 227.762 289.372 228.484 289.676C229.205 289.981 229.814 290.409 230.322 290.939C230.818 291.481 231.202 292.124 231.461 292.868C231.72 293.612 231.856 294.424 231.856 295.304C231.856 296.195 231.72 297.018 231.461 297.763C231.202 298.507 230.818 299.15 230.322 299.691C229.826 300.232 229.205 300.65 228.484 300.954C227.762 301.259 226.939 301.417 226.014 301.417ZM226.014 299.398C226.578 299.398 227.074 299.274 227.491 299.037C227.909 298.8 228.247 298.484 228.518 298.101C228.788 297.717 228.98 297.278 229.115 296.793C229.239 296.308 229.307 295.811 229.307 295.304C229.307 294.808 229.239 294.323 229.115 293.827C228.991 293.33 228.788 292.902 228.518 292.518C228.247 292.135 227.909 291.83 227.491 291.594C227.074 291.357 226.578 291.233 226.014 291.233C225.45 291.233 224.954 291.357 224.536 291.594C224.119 291.83 223.781 292.146 223.51 292.518C223.239 292.902 223.048 293.33 222.912 293.827C222.788 294.323 222.721 294.808 222.721 295.304C222.721 295.811 222.788 296.308 222.912 296.793C223.036 297.278 223.239 297.717 223.51 298.101C223.781 298.484 224.119 298.8 224.536 299.037C224.954 299.285 225.45 299.398 226.014 299.398ZM232.6 289.53H234.529V286.056H237.077V289.53H239.378V291.436H237.077V297.616C237.077 297.887 237.089 298.112 237.111 298.315C237.134 298.507 237.19 298.676 237.269 298.811C237.348 298.947 237.472 299.048 237.641 299.116C237.811 299.184 238.025 299.217 238.318 299.217C238.498 299.217 238.679 299.217 238.859 299.206C239.04 299.195 239.22 299.172 239.401 299.127V301.101C239.119 301.135 238.837 301.157 238.577 301.191C238.307 301.225 238.036 301.236 237.754 301.236C237.077 301.236 236.536 301.168 236.13 301.044C235.724 300.92 235.397 300.729 235.172 300.481C234.935 300.232 234.788 299.928 234.698 299.556C234.619 299.184 234.562 298.755 234.551 298.281V291.458H232.623V289.53H232.6Z" fill="#022A1C"/>
<path d="M126.926 296.229L133.591 294.503L136.388 303.097L126.926 296.229ZM142.219 285.12H130.535L126.926 274L123.317 285.12L111.622 285.109L121.084 291.977L117.475 303.097L126.926 296.229L132.768 291.988L142.219 285.12Z" fill="#022A1C"/>
</g>
<path d="M66.6962 151.821H62.9552C58.762 158.193 57.5287 159.673 57.5287 161.687C57.5287 163.907 59.3787 165.716 61.6397 165.716C63.9419 165.716 65.8329 163.866 65.8329 161.646C65.8329 159.879 64.8052 158.316 63.0374 157.741C64.4352 155.85 65.5451 153.835 66.6962 151.821ZM67.354 161.687C67.354 163.907 69.2039 165.716 71.4649 165.716C73.7671 165.716 75.6581 163.866 75.6581 161.646C75.6581 159.879 74.6304 158.316 72.8627 157.741C74.2604 155.85 75.3704 153.835 76.5214 151.821H72.7804C68.5873 158.193 67.354 159.673 67.354 161.687ZM80.617 184.709H102.282V177.967C98.0475 177.967 93.7721 177.967 87.8523 178.296L87.6467 178.049C87.8934 175.994 87.8934 174.02 87.6879 171.677L87.8523 171.554C93.4432 172.047 97.2253 172.047 101.049 172.047V164.935C97.1842 164.935 93.3199 164.935 87.8112 165.387L87.6879 165.264C87.8934 163.085 87.8934 161.235 87.6056 159.18L87.8523 159.056C93.6899 159.385 97.8008 159.385 101.871 159.385V152.643H80.617V184.709ZM104.111 184.709H112.168C113.484 182.407 114.758 180.146 115.991 177.597H116.279C117.677 180.146 118.787 182.407 120.102 184.709H127.954C125.652 180.803 123.144 176.898 120.637 173.116V172.828C123.144 169.21 125.529 165.428 127.831 161.687H120.102C118.704 164.031 117.389 166.333 116.279 168.923H115.991C114.717 166.333 113.525 164.031 112.168 161.687H104.193C106.536 165.428 109.003 169.21 111.469 172.828V173.116C109.044 176.898 106.454 180.803 104.111 184.709ZM140.356 185.408C145.782 185.408 150.016 182.53 151.578 178.008L145.124 175.377C144.179 177.844 142.247 178.83 140.356 178.83C137.683 178.83 135.258 176.734 135.258 173.198C135.258 170.033 137.231 167.607 140.109 167.607C142 167.607 143.932 168.471 144.754 171.06L151.167 168.429C149.605 163.907 145.371 161.03 140.109 161.03C133.408 161.03 128.187 165.675 128.187 173.239C128.187 180.845 133.531 185.408 140.356 185.408ZM165.487 185.408C170.996 185.408 174.819 182.407 176.258 178.995L169.804 176.364C168.899 178.419 167.131 179.241 165.405 179.241C163.02 179.241 160.759 177.967 160.143 175.171H176.258V173.568C176.258 165.387 171.201 161.03 164.953 161.03C158.128 161.03 153.319 166.292 153.319 173.321C153.319 180.68 158.581 185.408 165.487 185.408ZM160.472 170.69C161.047 168.471 162.486 166.867 164.912 166.867C167.173 166.867 168.858 168.018 169.392 170.69H160.472ZM180.047 184.709H186.912V151.821H180.047V184.709ZM191.93 184.709H198.795V151.821H191.93V184.709ZM214.666 185.408C220.175 185.408 223.998 182.407 225.437 178.995L218.983 176.364C218.078 178.419 216.311 179.241 214.584 179.241C212.2 179.241 209.939 177.967 209.322 175.171H225.437V173.568C225.437 165.387 220.38 161.03 214.132 161.03C207.308 161.03 202.498 166.292 202.498 173.321C202.498 180.68 207.76 185.408 214.666 185.408ZM209.651 170.69C210.226 168.471 211.665 166.867 214.091 166.867C216.352 166.867 218.037 168.018 218.572 170.69H209.651ZM229.226 184.709H236.091V173.198C236.091 168.676 238.352 167.607 240.325 167.607C243.943 167.607 243.943 171.143 243.943 173.198V184.709H250.808V170.156C250.808 164.113 247.191 161.03 242.915 161.03C240.284 161.03 237.735 162.222 236.091 165.017H235.803C236.009 163.702 236.009 162.674 236.009 161.687H229.226V184.709ZM266.378 185.408C267.982 185.408 269.503 185.202 270.654 184.627V178.542C269.914 178.83 268.927 179.159 267.817 179.159C264.734 179.159 264.734 176.692 264.734 174.678C264.734 172.417 264.734 170.197 264.487 167.772C266.707 167.936 268.68 167.936 270.654 167.936V161.687C268.68 161.687 266.707 161.687 264.487 161.852C264.734 159.55 264.734 157.412 264.734 155.274H257.869C257.869 157.412 257.869 159.55 258.115 161.852C256.348 161.687 254.868 161.687 253.347 161.687V167.936C254.868 167.936 256.348 167.936 258.115 167.772C257.869 171.019 257.869 174.144 257.869 177.227C257.869 179.488 257.869 185.408 266.378 185.408ZM283.31 165.017H287.051C291.244 158.645 292.478 157.165 292.478 155.151C292.478 152.931 290.628 151.122 288.367 151.122C286.064 151.122 284.173 152.972 284.173 155.192C284.173 156.96 285.201 158.522 286.969 159.098C285.571 160.989 284.461 163.003 283.31 165.017ZM273.444 165.017H277.185C281.378 158.645 282.611 157.165 282.611 155.151C282.611 152.931 280.761 151.122 278.5 151.122C276.198 151.122 274.307 152.972 274.307 155.192C274.307 156.96 275.335 158.522 277.102 159.098C275.705 160.989 274.595 163.003 273.444 165.017Z" fill="#022A1C"/>
</g>
<defs>
<clipPath id="clip0_145_13898">
<rect width="351" height="351" fill="white"/>
</clipPath>
<clipPath id="clip1_145_13898">
<rect width="127.756" height="31.3751" fill="white" transform="translate(111.622 274)"/>
</clipPath>
</defs>
</svg>
